<svg width="48" height="29" viewBox="0 0 48 29" fill="none" xmlns="http://www.w3.org/2000/svg">
<path d="M39.8827 7.68892L41.6389 3.24672C41.6389 3.24672 42.1361 2.42685 41.003 1.49449C39.8697 0.560303 39.4658 1.74198 39.3016 1.84539C39.1397 1.95036 37.5365 3.88758 37.3779 4.60226C37.2194 5.31867 37.2194 5.31867 37.2194 5.31867C37.2194 5.31867 35.3404 2.72821 34.3554 2.10779C33.3657 1.48587 33.2859 1.2607 33.2632 1.03317C33.2403 0.802095 32.7615 0.653152 32.7456 1.07021C32.7295 1.48556 32.6929 2.27259 32.9141 2.76434C33.1396 3.25579 33.5181 4.75157 33.5067 5.21425C33.4952 5.67683 34.4259 6.90395 34.4487 7.13319C34.4715 7.36244 34.6058 8.13539 34.827 8.62715C35.0528 9.1203 32.8402 12.4619 32.5394 12.947C32.2405 13.4284 32.0354 13.1205 31.6796 13.0085C31.3192 12.8932 29.8735 12.905 29.244 12.9501C28.6123 12.9953 19.623 9.85434 11.0233 10.0555C11.0233 10.0555 10.818 9.14659 11.6438 8.16399C12.4739 7.18097 11.131 5.89353 10.3238 5.9513C9.52091 6.00875 8.82751 6.0107 8.19132 6.60975C7.55729 7.21026 7.39537 7.91275 7.15145 8.34797C6.90503 8.7798 5.14626 14.3519 5.44954 16.8243C5.75232 19.2931 4.34522 18.4702 3.84933 18.4598C3.35343 18.4495 2.80852 18.2118 2.21087 19.1781C1.61337 20.1445 1.04976 23.1846 1.04976 23.1846C1.04976 23.1846 0.34254 25.4032 0.353905 26.0951C0.365402 26.7869 0.353568 28.4023 2.2831 28.0351C4.21214 27.6643 4.06846 27.9073 4.72886 27.3065C5.38911 26.7041 7.49006 22.907 7.62453 22.4814C7.76348 22.0573 8.1511 22.4896 8.39078 22.5677C8.63011 22.6422 11.2526 23.4239 13.8501 22.2211C13.8501 22.2211 15.3208 22.4384 17.7953 21.1544C17.7953 21.1544 24.4814 23.2598 30.8805 23.0328C30.8805 23.0328 35.3293 23.5428 37.7218 25.5202C40.1183 27.4955 39.8674 27.8818 40.9052 27.8551C41.9451 27.8265 41.9359 27.7338 42.2256 27.7606C42.5197 27.7854 42.873 28.451 43.7464 28.4819C44.6153 28.5114 45.457 28.8231 46.5013 28.2847C47.5481 27.7481 46.7204 27.5782 46.1865 27.4295C45.6507 27.2828 44.1617 26.2824 43.8813 25.7949C43.6031 25.3072 42.2007 23.4228 41.8702 21.832C41.5373 20.2396 41.428 17.9861 40.7828 16.7403C40.1398 15.4943 40.4612 15.2387 40.6782 15.0874C40.8926 14.9329 41.2847 15.3666 42.2424 15.1112C43.2005 14.8594 43.8474 14.168 44.0898 13.9179C44.3324 13.6697 44.9673 13.3017 44.1457 11.7918C43.3238 10.2802 43.4676 9.99311 42.7858 9.53431C42.1041 9.07551 42.0262 8.29518 39.8827 7.68892Z" fill="#6F8667"/>
</svg>
