<svg width="26" height="23" viewBox="0 0 26 23" fill="none" xmlns="http://www.w3.org/2000/svg">
<path d="M22.5761 3.38105C22.0291 2.83373 21.3795 2.39955 20.6646 2.10332C19.9497 1.8071 19.1834 1.65463 18.4096 1.65463C17.6357 1.65463 16.8695 1.8071 16.1545 2.10332C15.4396 2.39955 14.7901 2.83373 14.243 3.38105L13.1077 4.51641L11.9723 3.38105C10.8673 2.27601 9.3685 1.65521 7.80574 1.65521C6.24297 1.65521 4.74422 2.27601 3.63918 3.38105C2.53414 4.48609 1.91333 5.98485 1.91333 7.54761C1.91333 9.11038 2.53414 10.6091 3.63918 11.7142L4.77454 12.8495L13.1077 21.1827L21.4408 12.8495L22.5761 11.7142C23.1235 11.1671 23.5576 10.5176 23.8539 9.80265C24.1501 9.08774 24.3026 8.32147 24.3026 7.54761C24.3026 6.77376 24.1501 6.00749 23.8539 5.29258C23.5576 4.57766 23.1235 3.92812 22.5761 3.38105V3.38105Z" stroke="black" stroke-width="1.83616" stroke-linecap="round" stroke-linejoin="round"/>
</svg>
