<svg width="33" height="33" viewBox="0 0 33 33" fill="none" xmlns="http://www.w3.org/2000/svg">
<rect x="0.0825195" width="32.268" height="32.268" rx="8.60481" fill="#A7B8A1"/>
<path d="M12.3845 21.534L16.5148 17.1778C16.9343 16.7475 17.2624 16.3765 17.499 16.0645C17.7356 15.7419 17.9023 15.4461 17.9991 15.1772C18.1067 14.9083 18.1605 14.6286 18.1605 14.3382C18.1605 13.7681 17.9776 13.3218 17.6119 12.9991C17.2462 12.6764 16.773 12.5151 16.1921 12.5151C15.6221 12.5151 15.1219 12.6549 14.6917 12.9345C14.2614 13.2034 13.8796 13.6229 13.5462 14.193L12.4813 13.3056C12.9223 12.5742 13.4547 12.0257 14.0786 11.66C14.7024 11.2835 15.4231 11.0953 16.2405 11.0953C16.9289 11.0953 17.5259 11.2297 18.0314 11.4986C18.5477 11.7675 18.9457 12.144 19.2253 12.628C19.505 13.112 19.6448 13.6767 19.6448 14.3221C19.6448 14.7846 19.5857 15.1987 19.4673 15.5644C19.3598 15.9301 19.1608 16.3066 18.8704 16.6938C18.5907 17.0702 18.1981 17.522 17.6926 18.049L14.3529 21.4856L12.3845 21.534ZM12.3845 22.4536V21.534L13.6752 21.0984H19.903V22.4536H12.3845Z" fill="black"/>
</svg>
