<svg width="33" height="33" viewBox="0 0 33 33" fill="none" xmlns="http://www.w3.org/2000/svg">
<rect x="0.164917" width="32.268" height="32.268" rx="8.60481" fill="#A7B8A1"/>
<path d="M15.9433 22.615C15.2119 22.615 14.5451 22.4805 13.9427 22.2116C13.3511 21.9319 12.851 21.5286 12.4423 21.0016L13.4748 19.969C13.7222 20.3454 14.061 20.6466 14.4913 20.8725C14.9215 21.0876 15.4002 21.1952 15.9272 21.1952C16.422 21.1952 16.8468 21.1037 17.2018 20.9209C17.5675 20.7273 17.8525 20.4584 18.0569 20.1142C18.272 19.77 18.3796 19.372 18.3796 18.9203C18.3796 18.4578 18.272 18.0598 18.0569 17.7263C17.8525 17.3822 17.5621 17.1186 17.1857 16.9358C16.8092 16.7529 16.3628 16.6615 15.8465 16.6615C15.6529 16.6615 15.4593 16.6776 15.2657 16.7099C15.0721 16.7314 14.8839 16.7691 14.701 16.8228L15.3464 15.9516C15.5507 15.8548 15.7712 15.7795 16.0079 15.7257C16.2445 15.6719 16.4811 15.6451 16.7178 15.6451C17.3201 15.6451 17.8579 15.7849 18.3312 16.0645C18.8152 16.3442 19.197 16.7368 19.4767 17.2423C19.7671 17.7479 19.9123 18.3341 19.9123 19.0009C19.9123 19.7108 19.7402 20.3401 19.396 20.8886C19.0626 21.4264 18.6001 21.8513 18.0085 22.1632C17.4169 22.4644 16.7285 22.615 15.9433 22.615ZM14.701 16.8228V15.9032L17.9762 12.1762L19.7832 12.1601L16.4112 15.9839L14.701 16.8228ZM12.9747 12.6119V11.2566H19.7832V12.1601L18.4603 12.6119H12.9747Z" fill="black"/>
</svg>
