<svg width="33" height="33" viewBox="0 0 33 33" fill="none" xmlns="http://www.w3.org/2000/svg">
<rect x="0.329834" width="32.268" height="32.268" rx="8.60481" fill="#A7B8A1"/>
<path d="M16.1008 22.615C15.3371 22.615 14.6541 22.4805 14.0517 22.2116C13.4602 21.9319 12.96 21.5286 12.5513 21.0016L13.5839 19.969C13.8312 20.3454 14.1701 20.6466 14.6003 20.8725C15.0413 21.0876 15.5307 21.1952 16.0685 21.1952C16.574 21.1952 17.015 21.0984 17.3915 20.9047C17.7787 20.7111 18.0799 20.4422 18.295 20.098C18.5209 19.7431 18.6338 19.3236 18.6338 18.8396C18.6338 18.3448 18.5262 17.9253 18.3111 17.5811C18.096 17.2369 17.8056 16.9788 17.4399 16.8067C17.0849 16.6239 16.6923 16.5324 16.2621 16.5324C15.8211 16.5324 15.4178 16.5862 15.052 16.6938C14.6971 16.8013 14.3583 16.9842 14.0356 17.2423L14.0517 16.2743C14.2346 16.0484 14.4443 15.8656 14.681 15.7257C14.9176 15.5859 15.1865 15.4783 15.4877 15.403C15.7888 15.3278 16.1384 15.2901 16.5364 15.2901C17.3108 15.2901 17.9669 15.4514 18.5047 15.7741C19.0425 16.0968 19.4513 16.5324 19.7309 17.081C20.0213 17.6295 20.1665 18.2426 20.1665 18.9203C20.1665 19.6302 19.9891 20.2648 19.6341 20.8241C19.2899 21.3834 18.8113 21.8244 18.1982 22.1471C17.5851 22.459 16.8859 22.615 16.1008 22.615ZM14.0356 17.2423L13.2128 16.4195L13.7129 11.2566H15.1005L14.5358 16.5647L14.0356 17.2423ZM14.0195 12.6119L13.7129 11.2566H19.6018V12.6119H14.0195Z" fill="black"/>
</svg>
