<svg width="24" height="24" viewBox="0 0 24 24" fill="none" xmlns="http://www.w3.org/2000/svg">
<path d="M21 9.99927C21 16.9993 12 22.9993 12 22.9993C12 22.9993 3 16.9993 3 9.99927C3 7.61232 3.94821 5.32313 5.63604 3.63531C7.32387 1.94748 9.61305 0.999268 12 0.999268C14.3869 0.999268 16.6761 1.94748 18.364 3.63531C20.0518 5.32313 21 7.61232 21 9.99927Z" stroke="white" stroke-width="1.99832" stroke-linecap="round" stroke-linejoin="round"/>
<path d="M12 13.0001C13.6569 13.0001 15 11.657 15 10.0001C15 8.34327 13.6569 7.00012 12 7.00012C10.3431 7.00012 9 8.34327 9 10.0001C9 11.657 10.3431 13.0001 12 13.0001Z" stroke="white" stroke-width="1.99832" stroke-linecap="round" stroke-linejoin="round"/>
</svg>
