<svg width="102" height="45" viewBox="0 0 102 45" fill="none" xmlns="http://www.w3.org/2000/svg">
<path d="M0 16C0 7.16344 7.16344 0 16 0H86C94.8366 0 102 7.16344 102 16V29C102 37.8366 94.8366 45 86 45H16C7.16344 45 0 37.8366 0 29V16Z" fill="#4B5937"/>
<path d="M36.0526 29.18C35.5966 29.18 35.1586 29.12 34.7386 29C34.3186 28.868 33.9346 28.688 33.5866 28.46C33.2506 28.232 32.9566 27.962 32.7046 27.65L33.5146 26.822C33.8506 27.23 34.2286 27.536 34.6486 27.74C35.0806 27.932 35.5606 28.028 36.0886 28.028C36.6526 28.028 37.0906 27.92 37.4026 27.704C37.7266 27.488 37.8886 27.188 37.8886 26.804C37.8886 26.444 37.7746 26.162 37.5466 25.958C37.3186 25.754 37.0246 25.592 36.6646 25.472C36.3166 25.352 35.9446 25.238 35.5486 25.13C35.1526 25.01 34.7746 24.866 34.4146 24.698C34.0546 24.518 33.7606 24.272 33.5326 23.96C33.3166 23.648 33.2086 23.24 33.2086 22.736C33.2086 22.256 33.3226 21.842 33.5506 21.494C33.7906 21.134 34.1266 20.858 34.5586 20.666C35.0026 20.462 35.5246 20.36 36.1246 20.36C36.7606 20.36 37.3366 20.474 37.8526 20.702C38.3686 20.93 38.7826 21.266 39.0946 21.71L38.2846 22.52C38.0326 22.196 37.7146 21.95 37.3306 21.782C36.9586 21.602 36.5386 21.512 36.0706 21.512C35.5306 21.512 35.1166 21.62 34.8286 21.836C34.5526 22.04 34.4146 22.31 34.4146 22.646C34.4146 22.97 34.5286 23.228 34.7566 23.42C34.9846 23.6 35.2726 23.75 35.6206 23.87C35.9806 23.978 36.3586 24.092 36.7546 24.212C37.1506 24.32 37.5286 24.47 37.8886 24.662C38.2486 24.842 38.5366 25.094 38.7526 25.418C38.9806 25.73 39.0946 26.156 39.0946 26.696C39.0946 27.452 38.8186 28.058 38.2666 28.514C37.7266 28.958 36.9886 29.18 36.0526 29.18ZM44.9955 29.18C44.1435 29.18 43.3815 28.988 42.7095 28.604C42.0375 28.22 41.5035 27.692 41.1075 27.02C40.7235 26.348 40.5315 25.592 40.5315 24.752C40.5315 23.924 40.7235 23.18 41.1075 22.52C41.4915 21.848 42.0135 21.32 42.6735 20.936C43.3335 20.552 44.0715 20.36 44.8875 20.36C45.6555 20.36 46.3335 20.534 46.9215 20.882C47.5215 21.23 47.9895 21.716 48.3255 22.34C48.6735 22.952 48.8475 23.66 48.8475 24.464C48.8475 24.56 48.8415 24.674 48.8295 24.806C48.8175 24.926 48.7935 25.07 48.7575 25.238H41.4315V24.158H48.0735L47.6235 24.554C47.6355 23.93 47.5275 23.396 47.2995 22.952C47.0835 22.496 46.7655 22.148 46.3455 21.908C45.9375 21.656 45.4395 21.53 44.8515 21.53C44.2395 21.53 43.7055 21.662 43.2495 21.926C42.7935 22.19 42.4335 22.562 42.1695 23.042C41.9175 23.51 41.7915 24.068 41.7915 24.716C41.7915 25.364 41.9235 25.934 42.1875 26.426C42.4635 26.918 42.8415 27.302 43.3215 27.578C43.8135 27.854 44.3775 27.992 45.0135 27.992C45.5295 27.992 46.0035 27.902 46.4355 27.722C46.8675 27.53 47.2335 27.248 47.5335 26.876L48.3435 27.704C47.9475 28.172 47.4555 28.538 46.8675 28.802C46.2915 29.054 45.6675 29.18 44.9955 29.18ZM56.9311 29V24.032C56.9311 23.288 56.7091 22.688 56.2651 22.232C55.8331 21.764 55.2571 21.53 54.5371 21.53C54.0451 21.53 53.6131 21.638 53.2411 21.854C52.8691 22.07 52.5751 22.364 52.3591 22.736C52.1431 23.108 52.0351 23.534 52.0351 24.014L51.4591 23.69C51.4591 23.054 51.6091 22.484 51.9091 21.98C52.2091 21.476 52.6111 21.08 53.1151 20.792C53.6311 20.504 54.2191 20.36 54.8791 20.36C55.5271 20.36 56.1031 20.516 56.6071 20.828C57.1111 21.14 57.5011 21.56 57.7771 22.088C58.0651 22.616 58.2091 23.192 58.2091 23.816V29H56.9311ZM50.7751 29V20.54H52.0351V29H50.7751ZM64.1661 29.18C63.3861 29.18 62.6841 28.988 62.0601 28.604C61.4361 28.22 60.9381 27.698 60.5661 27.038C60.2061 26.366 60.0261 25.616 60.0261 24.788C60.0261 23.948 60.2061 23.198 60.5661 22.538C60.9381 21.866 61.4361 21.338 62.0601 20.954C62.6841 20.558 63.3861 20.36 64.1661 20.36C64.8021 20.36 65.3781 20.486 65.8941 20.738C66.4101 20.99 66.8361 21.35 67.1721 21.818C67.5201 22.274 67.7241 22.814 67.7841 23.438V26.084C67.7121 26.696 67.5081 27.236 67.1721 27.704C66.8481 28.16 66.4281 28.52 65.9121 28.784C65.3961 29.048 64.8141 29.18 64.1661 29.18ZM64.3821 27.974C64.9701 27.974 65.4861 27.842 65.9301 27.578C66.3741 27.302 66.7221 26.924 66.9741 26.444C67.2261 25.952 67.3521 25.394 67.3521 24.77C67.3521 24.134 67.2201 23.576 66.9561 23.096C66.7041 22.616 66.3561 22.238 65.9121 21.962C65.4681 21.686 64.9521 21.548 64.3641 21.548C63.7761 21.548 63.2541 21.686 62.7981 21.962C62.3421 22.238 61.9821 22.622 61.7181 23.114C61.4661 23.594 61.3401 24.146 61.3401 24.77C61.3401 25.394 61.4661 25.952 61.7181 26.444C61.9821 26.924 62.3421 27.302 62.7981 27.578C63.2661 27.842 63.7941 27.974 64.3821 27.974ZM68.5401 29H67.2801V26.732L67.5321 24.644L67.2801 22.61V16.256H68.5401V29Z" fill="white"/>
</svg>
