<svg width="24" height="25" viewBox="0 0 24 25" fill="none" xmlns="http://www.w3.org/2000/svg">
<path d="M6.09039 2.91187L3.10547 6.89176V20.8214C3.10547 21.3492 3.31512 21.8553 3.68831 22.2285C4.0615 22.6017 4.56765 22.8114 5.09542 22.8114H19.0251C19.5528 22.8114 20.059 22.6017 20.4322 22.2285C20.8054 21.8553 21.015 21.3492 21.015 20.8214V6.89176L18.0301 2.91187H6.09039Z" stroke="black" stroke-width="1.99832" stroke-linecap="round" stroke-linejoin="round"/>
<path d="M3.10547 6.89185H21.015" stroke="black" stroke-width="1.99832" stroke-linecap="round" stroke-linejoin="round"/>
<path d="M16.0401 10.8718C16.0401 11.9274 15.6208 12.9397 14.8744 13.686C14.1281 14.4324 13.1158 14.8517 12.0602 14.8517C11.0047 14.8517 9.99238 14.4324 9.24601 13.686C8.49963 12.9397 8.08032 11.9274 8.08032 10.8718" stroke="black" stroke-width="1.99832" stroke-linecap="round" stroke-linejoin="round"/>
</svg>
